<svg version="1.1" xmlns="http://www.w3.org/2000/svg" xmlns:xlink="http://www.w3.org/1999/xlink" x="0px" y="0px" viewBox="0 0 1000 1000" enable-background="new 0 0 1000 1000" xml:space="preserve">
<metadata> Svg Vector Icons : http://www.onlinewebfonts.com/icon </metadata>
<g><g transform="translate(0.000000,511.000000) scale(0.100000,-0.100000)"><path d="M280.7,110v-4900H5000h4719.3v180.7v180.7H5180.7H642.1V290.7V5010H461.4H280.7V110z"/><path d="M8454.5,2244.3c-531.5-673.9-797.2-997-818.4-990.6c-17,4.3-433.7,225.3-924.7,488.9c-491,263.6-899.2,474.1-907.7,465.6c-6.4-8.5-378.4-603.7-826.9-1322.3C4530.2,167.4,4158.2-430,4149.7-438.5c-8.5-8.5-372,131.8-809.9,314.6c-435.8,180.7-801.4,327.4-812.1,323.1c-17-4.3-1188.3-2610.5-1177.7-2621.1c40.4-34,312.5-150.9,323.1-138.2c6.4,10.6,236,525.1,510.2,1141.5C2457.5-799.8,2691.4-287.5,2702-276.9c12.8,12.8,329.5-110.5,797.2-306.1c427.3-178.6,782.3-321,786.5-314.6c4.3,4.3,367.8,586.7,809.9,1294.6c440.1,707.9,814.2,1298.9,829.1,1313.7c21.3,23.4,182.8-55.3,924.7-452.8c871.6-469.8,899.2-482.6,935.4-444.3c29.8,29.8,941.7,1188.3,1724,2189.6c12.8,14.9-29.8,61.6-116.9,131.8c-74.4,61.7-138.2,110.5-144.5,110.5C9243.1,3245.6,8886,2794.9,8454.5,2244.3z"/></g></g>
</svg>